<?xml version="1.0" standalone="no"?>
<!DOCTYPE svg PUBLIC "-//W3C//DTD SVG 20010904//EN"
 "http://www.w3.org/TR/2001/REC-SVG-20010904/DTD/svg10.dtd">
<svg version="1.0" xmlns="http://www.w3.org/2000/svg"
 width="496.000000pt" height="640.000000pt" viewBox="0 0 496.000000 640.000000"
 preserveAspectRatio="xMidYMid meet">

<g transform="translate(0.000000,640.000000) scale(0.100000,-0.100000)"
fill="#000000" stroke="none">
<path d="M463 4458 c5 -1032 8 -1116 43 -1388 140 -1090 721 -1827 1814 -2300
l164 -71 101 42 c473 201 807 413 1104 703 492 482 724 1021 802 1866 7 81 13
492 16 1158 l4 1032 -2026 0 -2027 0 5 -1042z m708 842 c20 -6 52 -21 70 -33
34 -23 35 -23 75 -5 188 82 393 54 528 -72 63 -59 88 -98 125 -203 37 -104 52
-136 80 -161 l21 -19 -29 -32 c-16 -18 -50 -74 -77 -124 -26 -50 -70 -116 -97
-146 -41 -47 -54 -55 -84 -55 l-35 0 5 58 c2 33 16 84 33 122 25 58 29 76 29
170 0 94 -3 111 -28 161 -41 84 -98 143 -175 181 -61 30 -74 33 -162 33 -59 0
-104 -5 -117 -13 l-23 -13 0 -353 0 -353 63 -6 c130 -11 256 -85 345 -203 27
-36 78 -120 113 -187 76 -144 121 -197 168 -197 35 0 80 20 100 44 21 25 31
19 31 -19 0 -103 -98 -168 -195 -130 -66 25 -120 84 -220 244 -136 216 -230
300 -354 317 l-51 7 0 -128 0 -128 -47 5 c-27 3 -65 12 -85 21 l-38 16 0 531
c0 447 -2 535 -15 559 -14 27 -51 63 -91 88 -18 10 -18 12 6 21 33 14 86 14
131 2z m1146 -142 c43 -48 54 -135 29 -224 -34 -116 -29 -178 20 -255 13 -21
20 -40 16 -43 -14 -8 -85 23 -114 51 -32 30 -78 112 -78 138 0 12 -13 15 -64
15 l-64 0 -31 62 c-17 33 -31 67 -31 75 0 10 25 13 115 13 104 0 116 2 134 22
25 26 35 75 28 129 -6 45 8 51 40 17z m-864 -138 c2 -106 4 -119 30 -163 l28
-48 -31 -29 c-42 -40 -90 -41 -119 -4 -19 25 -21 40 -21 190 0 182 -4 174 78
170 l32 -1 3 -115z m-343 11 c0 -57 -1 -59 -39 -84 -135 -89 -228 -343 -191
-522 29 -146 139 -292 267 -356 63 -32 75 -34 163 -34 82 1 103 5 154 28 32
15 60 27 62 27 2 0 4 -25 4 -55 l0 -54 -65 -20 c-359 -111 -601 15 -756 396
-22 54 -49 107 -60 119 -19 20 -19 20 10 42 24 18 32 36 50 114 33 141 80 229
170 319 50 50 98 86 140 107 88 44 91 43 91 -27z m576 -41 l63 0 20 -55 c31
-81 28 -95 -14 -95 l-35 0 0 -205 0 -205 115 0 114 0 21 47 c12 26 31 59 43
72 25 27 112 71 142 71 16 0 12 -8 -22 -42 -56 -58 -66 -102 -58 -247 7 -116
7 -117 -19 -148 -25 -30 -98 -63 -140 -63 -18 0 -18 2 7 28 33 35 58 93 50
120 -5 21 -11 22 -130 22 l-124 0 -60 50 c-33 27 -68 54 -79 60 -19 10 -20 22
-20 251 0 256 -6 296 -49 319 -38 20 -12 33 52 26 33 -3 88 -6 123 -6z m-77
-893 c66 -90 111 -165 111 -186 0 -34 39 -127 65 -155 14 -15 25 -29 25 -32 0
-13 -83 -1 -122 19 -45 23 -45 23 -71 3 -28 -21 -137 -36 -137 -19 0 6 10 18
21 29 41 36 49 74 49 239 0 93 4 155 10 155 5 0 27 -24 49 -53z m-273 -250 c9
-26 31 -68 50 -93 40 -52 41 -56 12 -50 -13 3 -40 8 -60 11 -21 3 -51 17 -67
31 l-30 25 -42 -30 c-43 -32 -87 -45 -133 -39 l-28 3 30 38 c26 32 54 92 67
142 1 6 41 10 94 10 l91 0 16 -48z"/>
</g>
</svg>
