<?xml version="1.0" standalone="no"?>
<!DOCTYPE svg PUBLIC "-//W3C//DTD SVG 20010904//EN"
 "http://www.w3.org/TR/2001/REC-SVG-20010904/DTD/svg10.dtd">
<svg version="1.0" xmlns="http://www.w3.org/2000/svg"
 width="224.000000pt" height="225.000000pt" viewBox="0 0 224.000000 225.000000"
 preserveAspectRatio="xMidYMid meet">

<g transform="translate(0.000000,225.000000) scale(0.100000,-0.100000)"
fill="#000000" stroke="none">
<path d="M937 2196 c-330 -59 -607 -253 -766 -537 -137 -244 -169 -565 -84
-834 70 -221 212 -418 399 -551 88 -63 254 -139 359 -166 120 -30 380 -33 493
-5 317 77 573 279 716 564 115 230 142 490 77 746 -86 336 -350 622 -676 734
-162 55 -369 75 -518 49z m408 -66 c298 -79 533 -268 665 -535 287 -576 -26
-1267 -650 -1437 -73 -20 -109 -23 -260 -23 -153 0 -185 3 -254 23 -358 104
-619 359 -721 707 -21 69 -28 121 -32 221 -7 157 7 263 49 383 61 172 122 268
257 401 163 160 345 248 586 284 72 11 282 -3 360 -24z"/>
<path d="M953 2076 c-34 -6 -65 -14 -68 -18 -4 -4 4 -4 17 -1 16 3 19 2 10 -5
-10 -7 -10 -11 3 -22 12 -10 19 -10 27 -2 7 7 21 12 33 13 11 0 14 3 7 6 -9 3
-5 10 12 18 19 10 41 11 92 4 65 -9 84 -7 84 12 0 12 -139 9 -217 -5z m7 -14
c0 -4 -9 -13 -20 -20 -24 -15 -26 -9 -4 12 17 18 24 20 24 8z"/>
<path d="M1239 2066 l24 -13 -28 -7 c-15 -4 -30 -5 -33 -1 -3 3 3 5 14 5 14 0
16 3 6 9 -19 12 -62 1 -62 -15 0 -8 6 -14 13 -15 32 -3 72 4 104 17 19 9 38
13 41 10 3 -3 -10 -12 -29 -20 -19 -9 -27 -15 -19 -16 13 0 13 -1 0 -10 -8 -5
-22 -10 -30 -10 -13 0 -13 1 0 10 13 8 13 10 -2 10 -9 0 -19 -4 -22 -9 -3 -5
-16 -7 -29 -5 -20 4 -20 4 -2 -5 19 -8 19 -9 -5 -14 -20 -4 -19 -4 7 -4 17 1
29 5 26 10 -3 5 4 6 15 3 23 -8 74 13 66 26 -3 5 0 9 7 7 28 -3 40 1 33 13 -5
8 -2 9 10 5 9 -4 15 -3 12 2 -7 10 -86 31 -118 31 l-23 -1 24 -13z"/>
<path d="M1016 2045 c7 -18 1 -15 51 -21 23 -3 44 0 48 6 4 6 -9 10 -34 10
-23 0 -41 5 -41 10 0 6 -7 10 -15 10 -9 0 -12 -6 -9 -15z"/>
<path d="M775 2029 c-19 -9 -19 -9 2 -5 15 2 23 -2 25 -13 2 -11 6 -12 11 -5
11 18 -15 33 -38 23z"/>
<path d="M950 2027 c0 -12 33 -37 48 -36 12 0 9 3 -7 10 -13 5 -21 12 -18 15
3 3 15 1 26 -6 12 -6 26 -8 31 -5 6 3 10 1 10 -4 0 -6 -6 -12 -12 -12 -23 -2
66 -18 97 -17 24 0 22 2 -13 9 -23 4 -49 15 -58 24 -8 8 -21 15 -28 15 -8 0
-28 3 -45 6 -17 4 -31 4 -31 1z"/>
<path d="M1405 2005 c-16 -14 -36 -25 -43 -25 -7 0 -16 -10 -21 -22 -6 -17 -1
-34 23 -69 30 -46 31 -47 48 -26 22 25 23 15 3 -17 -15 -22 -14 -27 6 -62 12
-21 34 -72 50 -114 15 -41 28 -70 28 -63 1 6 4 19 8 29 4 12 3 15 -5 10 -7 -4
-12 -3 -12 3 0 5 5 13 10 16 6 3 10 12 10 18 0 7 -6 5 -13 -5 -12 -15 -15 -11
-30 29 -19 51 -17 66 3 28 7 -14 17 -25 21 -25 11 0 23 49 15 57 -3 4 -6 -4
-6 -17 0 -22 -1 -22 -13 -6 -7 9 -21 18 -32 20 -13 2 -21 12 -23 30 -2 14 -8
24 -13 21 -13 -9 -11 9 2 22 7 7 13 29 14 50 2 21 1 32 -2 26 -7 -18 -23 -16
-23 3 0 11 -5 14 -16 10 -8 -3 -23 1 -31 10 -14 13 -14 17 -2 25 10 6 15 4 17
-7 3 -12 11 -14 30 -9 15 4 37 7 50 7 23 0 23 0 3 18 -12 9 -17 20 -14 24 4 4
0 4 -10 0 -18 -6 -24 10 -8 21 16 9 61 -17 61 -37 0 -10 6 -18 13 -19 6 0 21
-3 32 -5 33 -8 65 -11 65 -8 0 10 -58 30 -75 27 -15 -3 -17 -2 -6 5 10 8 2 15
-34 31 -26 12 -48 21 -49 21 0 -1 -14 -12 -31 -25z m25 -45 c-8 -6 -22 -10
-30 -9 -9 0 -5 6 10 14 27 14 44 10 20 -5z m-38 -48 c3 7 5 -2 5 -19 0 -18 -1
-33 -2 -33 -1 0 -15 19 -30 43 -28 42 -28 42 -2 19 18 -17 26 -20 29 -10z"/>
<path d="M1110 2010 l-25 -6 25 -7 c26 -7 34 -4 29 11 -2 4 -15 5 -29 2z"/>
<path d="M840 1995 c14 -16 13 -17 -7 -11 -13 4 -24 2 -29 -5 -4 -8 -3 -9 5
-5 6 4 18 3 25 -3 8 -7 22 -8 35 -3 20 7 20 8 -11 27 -31 18 -32 18 -18 0z"/>
<path d="M635 1965 c-60 -34 -70 -49 -15 -20 16 8 31 11 34 6 4 -5 0 -11 -6
-14 -7 -2 -1 -4 14 -4 15 0 25 3 23 8 -3 4 4 10 15 14 23 7 25 18 7 33 -9 8
-28 2 -72 -23z m60 -2 c-23 -16 -32 -16 -41 -1 -4 7 -3 8 4 4 7 -4 12 -3 12 3
0 6 7 7 17 4 12 -5 14 -3 8 7 -6 9 -4 11 5 5 10 -6 9 -11 -5 -22z"/>
<path d="M805 1952 c-11 -11 -4 -50 12 -63 15 -13 15 -12 5 8 -17 30 -15 33
14 33 14 0 23 -4 19 -10 -4 -6 -11 -8 -16 -5 -5 4 -9 2 -9 -4 0 -5 4 -12 10
-16 13 -8 0 -37 -15 -31 -9 3 -11 -3 -8 -17 3 -16 2 -18 -5 -9 -6 9 -9 4 -10
-18 -1 -30 1 -29 34 27 20 32 43 66 51 76 9 9 13 20 10 23 -8 9 -85 13 -92 6z
m80 -12 c3 -5 -1 -10 -9 -10 -9 0 -16 5 -16 10 0 6 4 10 9 10 6 0 13 -4 16
-10z m-22 -35 c-3 -9 -8 -14 -10 -11 -3 3 -2 9 2 15 9 16 15 13 8 -4z"/>
<path d="M1491 1941 c-9 -6 -1 -9 25 -9 30 0 34 2 19 9 -26 10 -28 10 -44 0z"/>
<path d="M1438 1933 c7 -3 16 -2 19 1 4 3 -2 6 -13 5 -11 0 -14 -3 -6 -6z"/>
<path d="M1611 1933 c1 -4 0 -10 -1 -13 -7 -17 -5 -62 3 -67 6 -3 7 -1 3 5 -4
7 -3 12 3 12 5 0 13 -4 16 -10 3 -5 11 -10 18 -10 6 0 2 7 -9 15 -11 9 -14 14
-6 15 15 0 62 -45 62 -60 0 -5 -4 -10 -10 -10 -13 0 -13 -11 0 -30 9 -13 11
-13 20 0 8 12 13 13 30 2 11 -7 20 -8 20 -3 0 12 33 7 37 -6 2 -6 -5 -13 -17
-16 -11 -3 -20 -13 -20 -23 0 -9 3 -14 7 -11 3 4 12 2 19 -4 14 -12 34 -4 34
13 0 7 -6 6 -15 -2 -9 -7 -15 -8 -15 -2 0 14 28 23 36 11 8 -13 -12 -35 -36
-42 -13 -3 -18 -1 -13 6 4 7 -1 6 -11 -2 -27 -23 3 -33 37 -13 53 31 52 36
-23 113 -38 40 -70 69 -70 65 0 -5 -9 2 -19 15 -20 26 -82 66 -80 52z m39 -26
c8 -7 22 -21 30 -32 14 -19 14 -19 -5 -5 -11 8 -23 19 -26 24 -4 4 -10 3 -13
-3 -4 -6 -12 -11 -19 -11 -6 0 -2 7 9 16 17 14 17 15 1 10 -11 -3 -16 -2 -12
4 8 13 17 12 35 -3z m91 -92 c10 -4 19 -11 19 -17 0 -5 -7 -7 -16 -4 -9 3 -21
6 -28 6 -7 0 -11 12 -10 28 3 37 6 41 11 15 2 -12 13 -25 24 -28z"/>
<path d="M510 1880 c-34 -30 -39 -38 -20 -31 14 5 24 14 23 20 -2 6 2 11 7 11
6 0 10 -4 10 -10 0 -5 7 -10 15 -10 8 0 15 7 15 15 0 9 -6 12 -17 8 -16 -6
-16 -4 1 15 29 33 16 26 -34 -18z"/>
<path d="M425 1807 c-10 -12 -27 -32 -38 -44 l-19 -22 29 4 c27 3 30 1 29 -23
-1 -23 10 -33 78 -74 77 -47 116 -59 116 -37 0 5 -4 8 -9 5 -4 -3 -13 6 -19
19 -7 14 -16 25 -22 25 -5 0 -10 8 -11 18 0 9 -3 12 -6 5 -3 -10 -9 -10 -23 0
-15 9 -22 9 -32 -1 -15 -15 -32 -16 -23 -1 4 6 -3 21 -16 35 -12 13 -17 24
-11 24 7 0 12 4 12 8 0 5 -13 8 -30 7 -16 -1 -30 2 -30 7 0 4 8 9 18 9 9 1 24
2 32 3 8 0 18 -3 22 -9 4 -5 8 6 8 25 0 43 -27 51 -55 17z m41 2 c8 -14 -11
-33 -25 -25 -11 7 -4 36 9 36 5 0 12 -5 16 -11z m-6 -109 c8 -5 12 -11 10 -14
-3 -2 -14 2 -24 10 -22 15 -10 19 14 4z m75 -32 c21 -10 36 -38 19 -38 -17 0
-44 23 -38 32 5 8 1 9 -10 5 -10 -4 -15 -3 -11 3 8 13 9 12 40 -2z"/>
<path d="M725 1744 c0 -12 4 -26 9 -31 5 -4 6 -3 3 4 -8 13 1 43 13 43 4 0 10
-6 13 -14 8 -19 -3 -57 -14 -50 -5 3 -9 1 -9 -5 0 -27 20 -17 32 16 18 53 17
57 -17 59 -26 1 -31 -3 -30 -22z"/>
<path d="M306 1662 c-199 -315 -203 -709 -12 -1016 l47 -75 67 54 c92 76 282
169 407 201 359 91 728 22 999 -186 l62 -48 37 58 c43 66 78 148 109 257 19
65 23 103 23 233 0 203 -27 308 -121 478 l-36 63 -31 -24 c-109 -82 -291 -163
-446 -198 -125 -29 -376 -36 -498 -15 -190 33 -391 115 -524 212 l-59 44 -24
-38z m789 -305 c29 -47 29 -47 2 -47 -14 0 -31 9 -39 22 l-15 22 -12 -22 c-7
-14 -21 -22 -36 -22 -30 0 -31 2 -2 45 30 48 74 49 102 2z m-654 -67 c42 -12
85 -54 94 -92 7 -26 5 -28 -27 -28 -25 0 -36 6 -43 22 -12 28 -53 43 -88 34
-42 -10 -62 -51 -62 -124 0 -57 3 -66 28 -88 49 -42 110 -28 130 29 5 14 0 17
-27 17 -30 0 -34 4 -38 30 l-5 30 69 0 68 0 0 -95 c0 -95 0 -95 -25 -95 -19 0
-25 5 -25 22 l0 21 -24 -22 c-37 -35 -102 -39 -146 -9 -54 36 -82 100 -77 173
7 97 45 154 117 176 35 10 40 10 81 -1z m1498 -17 c38 -29 62 -75 68 -135 7
-70 -11 -132 -52 -176 -32 -35 -36 -37 -98 -37 -56 0 -69 4 -92 25 -76 70 -88
227 -23 298 50 54 142 66 197 25z m-1129 2 c16 -8 34 -24 40 -34 20 -39 7
-113 -23 -133 -6 -4 -4 -12 6 -23 11 -11 17 -33 17 -66 0 -28 5 -59 10 -70 10
-17 7 -19 -28 -19 -45 0 -52 12 -52 86 0 47 -9 54 -71 54 l-39 0 0 -70 0 -70
-35 0 -35 0 0 180 0 180 90 0 c62 0 100 -5 120 -15z m350 -20 l0 -35 -85 0
-85 0 0 -35 0 -35 80 0 80 0 0 -36 0 -35 -77 2 -78 2 -3 -41 -3 -42 90 0 91 0
0 -35 0 -35 -119 0 c-96 0 -120 3 -125 15 -6 17 -6 326 1 338 2 4 56 7 119 7
l114 0 0 -35z m185 -101 l29 -137 17 79 c9 43 22 105 29 137 l11 57 50 0 49 0
0 -180 0 -180 -35 0 -35 0 -1 118 -1 117 -25 -117 -26 -118 -33 0 c-27 0 -35
5 -39 23 -3 12 -16 74 -29 137 l-24 115 -1 -137 -1 -138 -30 0 -30 0 0 180 0
180 49 0 48 0 28 -136z m305 -44 l0 -180 -35 0 -35 0 0 180 0 180 35 0 35 0 0
-180z"/>
<path d="M1812 1223 c-57 -23 -54 -205 3 -227 33 -12 75 -6 94 15 23 25 36 95
27 141 -12 61 -68 94 -124 71z"/>
<path d="M670 1175 l0 -45 49 0 c56 0 74 15 69 57 -3 27 -6 28 -60 31 l-58 3
0 -46z"/>
<path d="M961 1680 c-18 -15 -19 -20 -7 -20 12 0 16 -10 16 -45 0 -25 5 -45
10 -45 6 0 10 28 10 65 0 36 -1 65 -2 65 -2 -1 -14 -10 -27 -20z"/>
<path d="M1047 1682 c-10 -10 -17 -24 -17 -30 0 -20 32 -43 51 -37 15 5 17 3
13 -10 -5 -12 -14 -15 -30 -11 -13 4 -24 2 -24 -3 0 -16 20 -23 45 -17 33 8
44 65 21 101 -20 30 -37 32 -59 7z m46 -38 c-8 -20 -33 -17 -33 4 0 10 3 22 7
25 10 11 32 -13 26 -29z"/>
<path d="M1146 1684 c-33 -32 -12 -114 29 -114 47 0 59 97 15 120 -24 13 -26
13 -44 -6z m44 -55 c0 -28 -4 -39 -15 -39 -20 0 -29 43 -15 69 16 31 30 17 30
-30z"/>
<path d="M1245 1684 c-20 -20 -11 -32 10 -14 13 10 18 11 28 1 9 -10 8 -15 -6
-25 -15 -12 -16 -14 -2 -20 8 -3 15 -12 15 -21 0 -18 -36 -20 -43 -2 -2 6 -8
9 -13 4 -15 -14 23 -40 50 -33 23 6 25 10 24 57 -1 37 -6 53 -19 60 -23 12
-25 12 -44 -7z"/>
<path d="M655 1664 c-9 -14 -15 -37 -12 -50 2 -13 0 -21 -4 -18 -5 3 -9 1 -9
-5 0 -11 39 -25 47 -17 4 3 2 6 -3 6 -5 0 -8 20 -6 44 3 33 9 46 25 54 l22 11
-21 0 c-13 1 -29 -10 -39 -25z"/>
<path d="M1635 1660 c-10 -11 -13 -20 -7 -20 6 0 16 9 22 20 6 11 9 20 7 20
-2 0 -12 -9 -22 -20z"/>
<path d="M1700 1660 c-8 -5 -18 -6 -23 -3 -9 5 -57 -35 -57 -49 0 -16 36 -7
88 22 28 17 52 32 52 33 0 7 -47 5 -60 -3z m16 -15 c-11 -8 -24 -15 -30 -15
-5 0 -1 7 10 15 10 8 24 14 29 14 6 0 1 -6 -9 -14z"/>
<path d="M1555 1595 l30 -14 -30 2 c-16 1 -33 6 -37 12 -4 5 -10 2 -14 -8 -13
-34 11 -42 62 -20 l46 20 -32 12 c-46 15 -61 13 -25 -4z m-15 -31 c0 -2 -7 -4
-15 -4 -8 0 -15 4 -15 10 0 5 7 7 15 4 8 -4 15 -8 15 -10z"/>
<path d="M1515 731 c-2 -5 11 -12 30 -15 34 -7 35 -8 36 -54 1 -26 0 -57 -1
-69 -1 -13 2 -23 7 -23 4 0 9 17 10 37 1 21 8 40 18 45 8 5 13 13 10 19 -10
15 12 10 25 -6 7 -8 18 -15 26 -15 7 0 11 -8 9 -20 -3 -17 -1 -19 16 -10 13 8
19 7 19 0 0 -6 5 -8 11 -4 14 8 5 16 -63 53 -40 22 -59 28 -64 20 -4 -8 -3 -9
4 -5 17 10 15 1 -3 -14 -12 -10 -14 -8 -10 8 2 12 -2 25 -8 29 -24 18 -66 32
-72 24z"/>
<path d="M695 720 c3 -5 8 -10 11 -10 2 0 4 5 4 10 0 6 -5 10 -11 10 -5 0 -7
-4 -4 -10z"/>
<path d="M618 694 c-44 -22 -62 -44 -38 -44 6 0 10 4 10 10 0 5 20 19 45 31
42 20 55 30 38 29 -5 -1 -29 -12 -55 -26z"/>
<path d="M675 680 c-7 -22 0 -40 16 -40 6 0 7 5 4 10 -3 6 -1 10 5 10 6 0 8 5
5 10 -3 6 0 10 7 10 9 0 9 3 -2 10 -22 14 -28 12 -35 -10z"/>
<path d="M930 635 c0 -37 4 -65 10 -65 6 0 10 11 10 25 0 20 5 25 26 25 16 0
24 5 21 13 -2 6 -14 12 -26 11 -14 0 -21 5 -21 18 0 13 8 18 31 18 17 0 28 4
24 10 -3 6 -22 10 -41 10 l-34 0 0 -65z"/>
<path d="M1020 637 c0 -35 2 -66 5 -69 3 -3 22 -2 43 1 l37 6 0 60 0 60 -42 3
-43 3 0 -64z m68 26 c2 -8 -6 -13 -22 -13 -17 0 -26 5 -26 16 0 19 41 16 48
-3z m0 -56 c3 -12 -3 -17 -22 -17 -25 0 -35 18 -19 34 12 12 38 2 41 -17z"/>
<path d="M1130 636 c0 -36 5 -68 10 -71 6 -3 11 1 11 9 1 9 2 22 3 29 0 6 13
13 27 15 19 2 28 10 31 27 7 36 -9 55 -47 55 l-35 0 0 -64z m60 24 c0 -13 -7
-20 -20 -20 -13 0 -20 7 -20 20 0 13 7 20 20 20 13 0 20 -7 20 -20z"/>
<path d="M1255 688 c-17 -46 -33 -113 -29 -118 3 -3 12 4 19 14 13 18 16 18
39 2 14 -9 27 -16 30 -16 2 0 -3 28 -12 62 -16 59 -37 84 -47 56z m25 -48 c0
-11 -6 -20 -14 -20 -9 0 -12 7 -9 20 3 11 9 20 14 20 5 0 9 -9 9 -20z"/>
<path d="M1515 680 c-4 -6 -1 -17 5 -25 14 -17 35 -21 25 -5 -3 6 -1 10 4 10
6 0 11 7 11 15 0 17 -35 21 -45 5z"/>
<path d="M611 671 c-10 -7 -10 -10 -1 -16 6 -4 16 -3 22 3 13 13 -4 23 -21 13z"/>
<path d="M528 642 c-16 -9 -28 -20 -28 -24 0 -5 -6 -8 -12 -8 -12 0 -88 -62
-88 -71 0 -3 8 -5 19 -5 11 0 17 5 14 13 -4 9 0 11 11 7 13 -5 15 -2 10 12 -6
16 -5 17 7 6 11 -10 11 -16 1 -33 -7 -11 -10 -24 -7 -29 10 -16 -12 -11 -29 6
-9 8 -16 12 -16 8 0 -3 -7 -1 -15 6 -12 10 -15 10 -15 0 0 -6 9 -14 20 -17 11
-3 17 -9 15 -14 -3 -4 7 -7 22 -6 31 3 53 -12 46 -30 -4 -9 -12 -8 -31 4 -15
9 -2 -7 28 -35 30 -27 58 -48 63 -45 4 2 10 -2 13 -11 3 -9 12 -12 21 -9 10 4
14 2 9 -5 -3 -6 -1 -14 5 -18 8 -4 9 -3 5 4 -4 7 -3 12 3 12 5 0 8 9 6 20 -4
21 9 27 20 10 3 -5 2 -10 -3 -10 -5 0 -9 -7 -9 -15 0 -9 5 -14 10 -12 15 5 17
35 4 45 -16 12 -55 13 -62 1 -12 -19 -85 35 -78 58 5 14 45 5 61 -15 7 -10 12
-11 12 -4 0 16 -34 49 -47 45 -5 -2 -21 5 -34 16 -19 16 -21 22 -10 30 9 6 11
18 6 40 -4 20 -3 31 4 31 6 0 10 -5 9 -11 -2 -6 4 -14 12 -16 13 -4 13 -3 0 6
-10 7 -11 11 -2 11 6 0 11 4 10 9 -2 5 11 21 27 35 35 30 32 33 -7 8z m67
-251 c3 -6 -3 -9 -14 -8 -11 0 -17 5 -15 9 7 11 22 10 29 -1z"/>
<path d="M726 625 c-3 -10 3 -29 14 -45 11 -15 20 -33 20 -38 0 -6 5 -14 10
-17 6 -3 1 20 -11 52 -26 69 -25 68 -33 48z"/>
<path d="M1480 614 c-12 -32 -13 -31 3 -37 9 -3 13 5 13 29 0 41 -3 42 -16 8z"/>
<path d="M1517 613 c6 -15 29 -18 37 -4 3 5 -5 11 -18 13 -17 4 -23 1 -19 -9z"/>
<path d="M640 612 c0 -4 16 -6 35 -4 19 2 35 6 35 8 0 2 -16 4 -35 4 -19 0
-35 -4 -35 -8z"/>
<path d="M1745 610 c-3 -5 -1 -10 5 -10 6 0 10 -6 9 -12 -3 -25 1 -39 10 -34
5 3 9 -10 8 -29 -1 -19 -3 -32 -6 -30 -8 9 -31 -17 -24 -27 3 -6 0 -8 -8 -6
-8 3 -13 11 -11 17 1 7 -2 10 -8 6 -8 -5 -8 -11 -1 -19 6 -7 8 -16 5 -19 -4
-3 -15 4 -25 16 l-19 22 10 -28 c13 -35 13 -40 0 -32 -6 4 -9 1 -8 -7 2 -7 -3
-12 -9 -11 -7 2 -12 -2 -10 -8 1 -6 -4 -14 -12 -17 -8 -2 -11 0 -8 5 3 5 1 10
-6 10 -7 0 -17 2 -23 4 -5 2 -24 -12 -42 -32 -29 -33 -30 -37 -13 -42 28 -7
50 10 46 38 -1 15 3 25 11 25 8 0 11 -8 9 -20 -4 -20 -4 -20 26 1 48 34 196
181 175 175 -13 -5 -17 -2 -13 8 3 8 -1 20 -9 26 -13 11 -18 7 -15 -12 0 -4
-6 -5 -14 -1 -11 4 -13 9 -5 18 7 9 6 16 -4 24 -10 8 -16 9 -21 1z m60 -89
c-9 -16 -25 -3 -18 15 4 10 9 12 15 6 6 -6 7 -15 3 -21z"/>
<path d="M1705 600 c3 -6 -2 -10 -12 -10 -15 0 -16 -2 -3 -10 19 -12 33 -13
26 -1 -4 5 -1 11 6 13 7 3 5 7 -6 11 -10 4 -15 3 -11 -3z"/>
<path d="M660 592 c0 -13 36 -26 50 -17 5 3 10 1 10 -6 0 -7 2 -10 5 -7 3 3 3
13 -1 22 -5 13 -9 14 -20 5 -11 -9 -18 -8 -29 1 -9 8 -15 8 -15 2z"/>
<path d="M530 580 c18 -12 30 -13 30 -2 0 4 -10 9 -22 9 -18 2 -20 0 -8 -7z"/>
<path d="M1510 559 c0 -11 -4 -18 -9 -14 -5 3 -9 -8 -9 -24 1 -39 14 -31 22
13 4 19 12 37 19 39 7 3 4 6 -5 6 -12 1 -18 -6 -18 -20z"/>
<path d="M1447 530 c-8 -22 -11 -40 -6 -40 5 0 9 8 9 18 0 13 2 14 9 3 7 -10
10 -10 16 -1 4 7 2 15 -4 19 -6 4 -9 15 -5 24 3 9 4 17 2 17 -3 0 -12 -18 -21
-40z"/>
<path d="M720 520 c0 -5 -7 -7 -15 -4 -11 4 -13 2 -9 -9 7 -20 38 -15 42 6 2
10 -1 17 -7 17 -6 0 -11 -4 -11 -10z"/>
<path d="M773 494 c-3 -9 -12 -13 -22 -9 -10 4 -7 -3 8 -19 13 -13 31 -24 41
-23 15 1 16 5 7 24 -6 13 -14 23 -19 23 -5 0 -6 5 -3 10 3 6 4 10 0 10 -3 0
-8 -7 -12 -16z"/>
<path d="M1600 480 c0 -5 7 -10 15 -10 8 0 15 5 15 10 0 6 -7 10 -15 10 -8 0
-15 -4 -15 -10z"/>
<path d="M1420 470 c-1 -8 -2 -21 -1 -29 2 -8 -3 -10 -11 -6 -7 4 -5 0 4 -10
23 -25 28 -17 18 25 -4 19 -9 28 -10 20z"/>
<path d="M516 436 c3 -9 11 -16 16 -16 13 0 5 23 -10 28 -7 2 -10 -2 -6 -12z"/>
<path d="M810 420 c-14 -9 -13 -11 10 -14 15 -2 29 -27 23 -42 -2 -6 5 -19 17
-27 12 -8 17 -18 11 -21 -12 -8 -41 32 -41 58 0 19 -1 19 -16 -3 -13 -17 -14
-25 -5 -34 9 -9 11 -7 6 8 -6 16 -5 17 4 5 18 -25 13 -28 -31 -23 -24 3 -40 3
-36 -1 5 -6 26 -9 103 -16 6 0 1 -7 -9 -15 -10 -8 -23 -12 -29 -8 -6 4 -7 1
-2 -7 6 -9 1 -10 -16 -5 -19 5 -21 4 -9 -4 29 -20 -11 -12 -46 9 -24 15 -34
17 -40 9 -4 -8 -3 -9 4 -5 7 4 12 3 12 -3 0 -5 16 -15 35 -21 33 -11 39 -9 85
20 52 33 60 47 35 56 -8 4 -13 9 -10 13 2 4 -6 24 -18 44 -17 28 -26 34 -37
27z"/>
<path d="M1370 380 c-8 -15 -8 -20 1 -20 6 0 9 -7 5 -17 -6 -17 -5 -17 8 0 7
9 18 17 25 17 6 0 11 10 11 23 l-1 22 -21 -25 c-21 -24 -21 -24 -15 -2 6 27 1
28 -13 2z"/>
<path d="M1431 373 c-2 -21 -53 -62 -70 -56 -17 7 -16 5 13 -17 11 -8 17 -10
13 -3 -5 7 0 12 13 12 11 1 29 1 40 2 11 0 18 5 14 10 -3 5 -15 7 -27 4 -21
-6 -21 -5 -4 9 11 8 17 22 14 33 -3 10 -5 13 -6 6z"/>
<path d="M1339 333 c-13 -16 -12 -17 4 -4 16 13 21 21 13 21 -2 0 -10 -8 -17
-17z"/>
<path d="M615 330 c3 -5 11 -10 16 -10 6 0 7 5 4 10 -3 6 -11 10 -16 10 -6 0
-7 -4 -4 -10z"/>
<path d="M665 321 c-19 -8 -19 -8 2 -20 19 -10 22 -9 16 5 -5 13 -2 15 15 9
13 -4 22 -2 22 4 0 13 -26 13 -55 2z"/>
<path d="M1474 318 c-3 -4 4 -8 15 -8 11 0 22 4 25 8 2 4 -4 8 -15 8 -11 0
-23 -4 -25 -8z"/>
<path d="M1053 310 c-55 -11 -79 -25 -85 -48 -6 -20 4 -23 147 -37 36 -3 29
-1 -23 9 -40 8 -80 20 -88 27 -13 11 -13 14 8 25 12 7 26 10 29 8 4 -2 21 1
38 7 18 6 51 8 76 4 42 -6 45 -8 40 -32 -2 -15 -9 -29 -14 -33 -6 -3 13 -11
42 -18 41 -9 62 -9 102 2 l50 13 -32 16 c-23 12 -34 14 -39 5 -4 -6 -3 -8 4
-4 6 3 13 2 17 -4 3 -5 -6 -15 -20 -20 -34 -13 -55 -13 -35 0 11 7 4 10 -27
10 -39 0 -43 2 -39 23 1 12 11 24 21 25 11 3 15 0 10 -8 -9 -14 12 -30 39 -30
36 0 -35 48 -87 60 -54 11 -74 11 -134 0z"/>
<path d="M1535 310 c-3 -5 -19 -10 -34 -10 -33 0 -90 -39 -58 -40 11 0 15 4
11 12 -5 8 -2 9 10 5 11 -4 15 -3 11 4 -4 6 -1 10 6 8 27 -3 45 1 65 16 10 8
14 15 7 15 -6 0 -15 -4 -18 -10z"/>
<path d="M765 300 c27 -12 43 -12 25 0 -8 5 -22 9 -30 9 -10 0 -8 -3 5 -9z"/>
<path d="M1130 290 c8 -5 24 -9 35 -9 l20 0 -20 9 c-11 5 -27 9 -35 9 -13 1
-13 0 0 -9z"/>
<path d="M1405 291 c-6 -11 9 -23 19 -14 9 9 7 23 -3 23 -6 0 -12 -4 -16 -9z"/>
<path d="M907 253 c-22 -16 -33 -29 -26 -32 7 -2 19 5 26 15 8 11 19 18 24 17
5 -2 9 2 9 8 0 5 5 7 12 3 7 -4 8 -3 4 4 -9 15 -5 16 -49 -15z"/>
<path d="M1025 271 c-2 -5 10 -11 28 -14 42 -6 45 -2 8 11 -17 6 -33 7 -36 3z"/>
<path d="M1118 263 c12 -2 30 -2 40 0 9 3 -1 5 -23 4 -22 0 -30 -2 -17 -4z"/>
<path d="M921 226 c-10 -12 -3 -16 41 -21 31 -4 68 -2 88 4 31 10 28 10 -28 6
-49 -4 -64 -2 -68 10 -8 19 -18 19 -33 1z"/>
<path d="M1175 210 c-26 -7 -24 -8 20 -9 36 0 46 2 35 9 -8 5 -17 9 -20 9 -3
-1 -18 -5 -35 -9z"/>
<path d="M1090 200 c0 -5 12 -10 28 -10 21 0 24 2 12 10 -20 13 -40 13 -40 0z"/>
</g>
</svg>
