<?xml version="1.0" standalone="no"?>
<!DOCTYPE svg PUBLIC "-//W3C//DTD SVG 20010904//EN"
 "http://www.w3.org/TR/2001/REC-SVG-20010904/DTD/svg10.dtd">
<svg version="1.0" xmlns="http://www.w3.org/2000/svg"
 width="225.000000pt" height="225.000000pt" viewBox="0 0 225.000000 225.000000"
 preserveAspectRatio="xMidYMid meet">

<g transform="translate(0.000000,225.000000) scale(0.100000,-0.100000)"
fill="#000000" stroke="none">
<path d="M0 1125 l0 -1125 1125 0 1125 0 0 1125 0 1125 -1125 0 -1125 0 0
-1125z m1914 695 c-1 -14 -2 -153 -3 -310 l-2 -285 -385 -470 c-212 -259 -389
-474 -393 -478 -6 -6 -214 241 -561 669 -41 51 -110 135 -153 188 l-78 95 0
283 c1 156 1 295 1 311 l0 27 788 -2 787 -3 -1 -25z"/>
<path d="M430 1555 l0 -205 695 0 695 0 0 205 0 205 -695 0 -695 0 0 -205z
m322 110 c3 -13 3 -27 0 -30 -3 -3 -45 -5 -94 -5 -87 0 -89 -1 -86 -22 3 -21
9 -23 83 -26 61 -2 83 -7 93 -19 17 -23 15 -104 -4 -131 -14 -20 -23 -22 -125
-22 l-109 0 0 35 0 35 90 0 c83 0 90 1 90 20 0 12 -7 20 -17 20 -76 2 -141 7
-151 14 -13 8 -17 137 -5 149 3 4 57 7 119 7 111 0 112 0 116 -25z m316 13 c7
-7 12 -39 12 -74 0 -85 -11 -94 -106 -94 l-74 0 0 -50 c0 -49 -1 -50 -30 -50
l-30 0 0 140 0 140 108 0 c71 0 112 -4 120 -12z m342 -13 c0 -24 -2 -24 -92
-27 l-93 -3 0 -30 0 -30 68 -3 c67 -3 67 -3 67 -32 l0 -30 -68 0 -69 0 1 -47
c1 -45 -1 -48 -26 -51 -33 -4 -34 -1 -30 154 l3 124 120 0 119 0 0 -25z m318
13 c7 -7 12 -29 12 -50 0 -36 -2 -38 -30 -38 -24 0 -30 4 -30 20 0 19 -5 21
-62 18 l-63 -3 -3 -68 c-3 -60 -1 -68 17 -75 33 -12 111 -2 111 14 0 9 11 14
30 14 28 0 30 -3 30 -34 0 -56 -18 -66 -125 -66 -121 0 -125 5 -125 143 0 139
-1 137 123 137 67 0 107 -4 115 -12z"/>
<path d="M900 1600 l0 -31 58 3 c54 3 57 4 60 31 3 27 3 27 -57 27 l-61 0 0
-30z"/>
<path d="M467 1213 c22 -27 93 -113 159 -193 66 -80 173 -210 238 -290 66 -80
123 -149 128 -154 4 -6 8 146 8 337 l0 347 -286 0 -286 0 39 -47z"/>
<path d="M1250 913 c0 -294 2 -345 14 -333 7 8 129 157 271 330 142 173 264
323 273 333 14 16 1 17 -271 17 l-287 0 0 -347z"/>
</g>
</svg>
