<?xml version="1.0" standalone="no"?>
<!DOCTYPE svg PUBLIC "-//W3C//DTD SVG 20010904//EN"
 "http://www.w3.org/TR/2001/REC-SVG-20010904/DTD/svg10.dtd">
<svg version="1.0" xmlns="http://www.w3.org/2000/svg"
 width="95.000000pt" height="121.000000pt" viewBox="0 0 95.000000 121.000000"
 preserveAspectRatio="xMidYMid meet">

<g transform="translate(0.000000,121.000000) scale(0.100000,-0.100000)"
fill="#000000" stroke="none">
<path d="M439 1190 c-13 -10 -21 -19 -18 -20 4 0 3 -16 -1 -35 -6 -25 -4 -38
6 -46 21 -17 17 -25 -18 -37 -28 -8 -17 -10 67 -10 75 -1 94 2 75 9 -34 14
-34 14 -15 43 23 35 12 82 -25 101 -37 19 -43 19 -71 -5z m74 -35 c39 -29 5
-62 -50 -50 -22 5 -32 42 -16 58 11 11 47 7 66 -8z"/>
<path d="M765 1023 c-51 -58 -65 -81 -61 -98 3 -12 -1 -31 -9 -42 -12 -18 -13
-23 -1 -32 10 -8 16 -9 21 -1 3 5 23 10 43 10 35 0 80 31 176 121 10 9 -54 93
-84 109 -15 8 -29 -2 -85 -67z m11 -18 c-36 -42 -66 -72 -66 -67 0 12 122 154
127 148 3 -3 -24 -39 -61 -81z m10 -71 c-14 -15 -26 -33 -26 -41 0 -8 -4 -12
-9 -8 -5 3 -12 1 -16 -5 -13 -21 -23 -9 -12 15 7 14 16 25 20 25 5 0 20 9 34
20 36 28 41 25 9 -6z"/>
<path d="M60 1044 c-28 -26 -50 -50 -50 -54 0 -4 35 -36 78 -71 42 -35 68 -53
58 -41 -11 12 -14 22 -8 22 7 0 17 -9 24 -20 7 -11 22 -20 33 -20 11 0 30 -7
42 -15 17 -12 22 -12 26 -1 3 7 1 19 -4 27 -5 8 -9 28 -9 46 0 24 -14 48 -61
102 -33 39 -65 71 -70 71 -6 0 -32 -21 -59 -46z m25 -99 c28 -25 41 -41 30
-36 -29 15 -102 81 -90 81 6 0 33 -20 60 -45z m130 -25 c7 0 15 -12 18 -26 3
-19 1 -24 -10 -20 -8 3 -19 6 -24 6 -5 0 -9 8 -9 17 0 9 -10 28 -22 42 l-23
25 29 -22 c16 -12 34 -22 41 -22z"/>
<path d="M361 1015 c-1 -29 11 -43 44 -51 17 -3 38 -14 48 -22 12 -11 17 -12
17 -2 0 10 3 10 15 0 9 -8 15 -8 15 -2 0 6 19 17 43 24 34 12 43 20 45 41 l3
27 -105 0 c-94 0 -106 -2 -107 -17 0 -15 -2 -15 -9 2 l-9 20 0 -20z m177 -32
c-26 -2 -71 -2 -100 0 -29 2 -8 3 47 3 55 0 79 -1 53 -3z"/>
<path d="M456 908 c4 -12 1 -18 -10 -18 -8 0 -39 -9 -69 -20 -64 -24 -132 -87
-159 -146 -20 -47 -40 -174 -26 -174 4 0 8 -7 8 -15 0 -26 40 -98 74 -133 37
-41 88 -68 158 -86 46 -11 53 -17 55 -39 1 -15 -2 -29 -8 -32 -5 -4 -9 8 -9
26 0 33 -12 34 -15 1 -2 -28 -28 -60 -60 -72 -47 -18 -114 4 -168 54 -23 22
-27 29 -17 41 7 8 17 12 23 8 5 -3 7 -1 3 5 -3 6 3 17 15 25 14 10 17 17 9 22
-6 4 -25 -9 -44 -31 l-32 -37 -32 43 c-24 33 -29 46 -19 54 9 8 0 23 -40 63
l-52 52 -6 -43 c-8 -48 5 -127 19 -127 11 1 13 75 3 111 -4 16 -1 13 8 -7 10
-22 22 -33 38 -34 16 -1 18 -2 5 -6 -24 -6 -23 -12 12 -65 65 -98 168 -167
270 -182 48 -6 60 -2 78 29 9 16 11 9 11 -45 0 -63 0 -64 -15 -38 -14 28 -22
31 -99 43 -84 14 -204 100 -251 181 -14 24 -30 44 -35 44 -15 0 -11 -10 26
-61 19 -27 35 -53 35 -57 0 -5 -13 -21 -30 -37 -16 -16 -30 -35 -30 -44 0 -8
16 4 36 27 l36 43 38 -35 c50 -45 115 -81 170 -96 65 -18 90 -31 104 -57 l12
-24 22 30 c15 21 38 34 79 46 77 23 119 45 175 94 25 23 51 41 56 41 5 0 24
-16 42 -36 17 -20 34 -34 36 -31 3 3 -11 23 -30 45 -20 22 -36 42 -36 46 0 3
13 24 29 46 21 29 31 36 39 28 7 -7 15 -8 19 -4 11 11 17 166 6 166 -5 0 -31
-23 -58 -50 -38 -38 -47 -53 -36 -59 15 -10 5 -35 -27 -64 -19 -17 -20 -16
-51 19 -22 25 -36 33 -43 26 -7 -7 -3 -14 11 -22 12 -6 19 -15 16 -19 -6 -11
20 -33 28 -24 4 3 7 1 7 -5 0 -35 -104 -95 -167 -96 -51 -1 -89 30 -95 79 -4
33 -3 34 43 45 100 24 181 100 214 201 9 27 22 49 28 49 7 0 6 4 -3 10 -13 9
-13 11 0 20 8 5 10 10 4 10 -6 0 -19 28 -28 62 -30 108 -104 183 -207 209 -27
7 -49 18 -49 23 0 6 -5 4 -10 -4 -8 -13 -11 -12 -25 5 -12 16 -14 17 -9 3z
m48 -44 c10 -26 7 -31 -19 -31 -28 0 -29 1 -15 28 13 23 26 24 34 3z m-84 -3
c0 -5 3 -17 7 -27 5 -13 3 -16 -10 -11 -9 3 -17 2 -17 -3 0 -19 -18 -10 -23
12 -8 27 1 38 13 18 8 -13 10 -12 10 3 0 9 5 17 10 17 6 0 10 -4 10 -9z m30
-18 c0 -22 -2 -25 -10 -13 -13 20 -13 40 0 40 6 0 10 -12 10 -27z m105 17 c4
-6 11 -8 16 -5 12 8 11 -16 -1 -35 -8 -13 -11 -13 -19 -1 -5 7 -14 10 -20 7
-12 -8 -14 4 -5 28 7 18 20 21 29 6z m-198 -24 c-3 -7 0 -19 6 -25 6 -6 8 -13
5 -17 -4 -3 -16 4 -27 15 -19 19 -19 21 -3 30 23 14 25 13 19 -3z m273 -8 c0
-5 -4 -7 -9 -4 -5 4 -7 -3 -4 -15 5 -16 2 -20 -12 -18 -10 2 -20 10 -23 18 -3
9 0 11 8 6 9 -5 11 -4 6 3 -4 7 -5 16 -1 22 7 11 35 2 35 -12z m-50 -38 c22
-11 40 -24 40 -28 0 -4 -19 -15 -43 -24 -48 -20 -112 -24 -101 -7 3 6 19 9 35
5 36 -7 39 11 3 20 -34 9 -113 -14 -93 -27 19 -12 32 -11 24 1 -3 6 -2 10 4
10 10 0 8 -59 -3 -81 -4 -8 0 -5 8 5 10 12 16 15 16 7 0 -17 62 -10 113 13 20
9 37 13 37 8 0 -14 -73 -44 -116 -47 -45 -4 -124 -39 -124 -55 0 -6 19 -1 42
11 22 11 56 21 74 21 19 0 50 9 71 19 20 10 43 19 50 19 8 0 13 13 13 34 l0
34 -50 -24 c-54 -26 -105 -32 -97 -11 2 6 15 11 28 10 13 -2 47 8 74 22 47 23
51 23 64 7 26 -33 41 -82 41 -137 0 -56 -10 -70 -26 -36 -9 19 -10 19 -59 -4
-57 -28 -55 -28 -55 -16 0 5 23 18 50 30 28 12 50 26 50 32 0 12 -30 4 -75
-19 -16 -9 -45 -14 -62 -13 -34 3 -113 -34 -113 -53 0 -6 -4 -4 -10 4 -5 8
-13 11 -17 6 -4 -4 0 -13 10 -21 9 -7 16 -22 15 -35 -2 -13 3 -25 10 -27 7 -3
10 1 6 10 -3 9 4 22 18 31 30 21 36 20 40 -5 7 -47 33 -47 118 -1 44 24 80 38
80 33 0 -20 -66 -85 -105 -102 -51 -24 -121 -25 -133 -3 -6 11 -11 13 -16 5
-18 -28 -117 57 -137 118 -11 34 -8 132 6 164 5 12 3 17 -9 17 -9 0 -13 -6
-10 -14 4 -11 0 -13 -15 -9 -22 6 -29 37 -11 48 6 4 22 -1 36 -10 14 -9 26
-15 27 -13 24 47 54 72 113 94 48 17 110 12 164 -16z m-252 8 c18 -18 15 -28
-9 -28 -11 0 -17 -4 -14 -10 9 -14 -8 -13 -23 2 -18 18 -15 28 9 28 11 0 17 5
14 10 -9 14 8 13 23 -2z m364 -40 c-9 -9 -52 1 -52 13 0 4 8 13 18 18 13 8 20
6 30 -6 6 -9 9 -20 4 -25z m-402 -13 c16 -19 0 -19 -26 0 -16 12 -16 14 -3 15
9 0 22 -7 29 -15z m430 -11 c0 -3 -5 -14 -11 -26 -9 -18 -8 -19 10 -13 12 4
21 2 21 -4 0 -6 -7 -11 -15 -11 -8 0 -15 -4 -15 -10 0 -5 10 -10 23 -10 20 -1
20 -2 4 -11 -22 -13 -51 6 -43 28 3 7 0 13 -6 13 -6 0 -8 3 -5 7 4 3 0 15 -10
25 -15 17 -14 18 15 18 18 0 32 -3 32 -6z m-460 -79 c0 -14 -5 -25 -11 -25 -8
0 -8 -5 1 -15 16 -19 6 -45 -19 -45 -22 0 -36 29 -21 44 7 7 10 5 10 -7 0 -9
7 -17 15 -17 13 0 14 4 5 20 -6 11 -15 20 -20 20 -11 0 -14 33 -3 43 3 4 15 7
25 7 13 0 18 -7 18 -25z m483 -32 c-25 -5 -32 -33 -9 -33 8 0 18 -4 21 -10 4
-6 -6 -10 -23 -10 -25 0 -29 4 -30 30 -1 27 2 30 31 29 24 -1 26 -3 10 -6z
m-230 -84 c-17 -3 -48 -16 -67 -27 -36 -21 -50 -16 -21 8 23 19 87 39 105 32
10 -4 5 -8 -17 -13z m201 9 c-5 -9 -3 -9 9 1 14 11 18 11 23 -4 4 -9 1 -22 -6
-28 -10 -10 -11 -8 -6 8 6 16 5 18 -5 8 -19 -19 -29 -16 -29 7 0 11 5 20 11
20 5 0 7 -6 3 -12z m-54 -5 c0 -12 -161 -96 -168 -88 -4 4 -2 9 3 12 6 2 42
21 80 43 72 40 85 46 85 33z m-378 -51 c4 -13 -1 -18 -18 -17 -26 0 -52 21
-39 32 4 5 10 2 12 -4 8 -23 25 -14 17 9 -6 20 -5 21 8 10 9 -7 18 -21 20 -30z
m234 13 c-11 -8 -25 -15 -30 -15 -6 0 -2 7 8 15 11 8 25 15 30 15 6 0 2 -7 -8
-15z m212 -28 c-7 -14 -12 -16 -18 -7 -4 7 -14 16 -21 21 -8 5 -2 7 18 7 29
-1 31 -3 21 -21z m-34 -13 c3 -9 6 -20 6 -25 0 -12 -47 -12 -55 1 -3 6 1 10 9
10 9 0 16 7 16 15 0 20 16 19 24 -1z m-374 -19 c10 -12 9 -18 -4 -31 -17 -17
-46 -13 -46 6 0 6 5 8 12 4 7 -5 9 -2 5 8 -10 28 13 38 33 13z m575 -54 c0
-46 -2 -55 -10 -41 -9 17 -13 15 -38 -24 -39 -62 -128 -143 -183 -167 -26 -11
-68 -22 -93 -25 -40 -4 -36 -2 29 18 42 13 85 30 96 38 68 49 164 156 164 185
0 7 -8 16 -17 18 -11 3 -8 5 9 6 21 1 29 7 34 26 3 14 7 25 8 25 1 0 2 -27 1
-59z m-267 -12 c-17 -10 -28 -2 -21 17 4 11 8 12 20 3 11 -10 11 -14 1 -20z
m-258 6 c0 -8 -7 -15 -15 -15 -8 0 -15 7 -15 15 0 8 7 15 15 15 8 0 15 -7 15
-15z m204 -11 c7 -19 -1 -34 -19 -34 -18 0 -28 17 -21 35 7 20 32 19 40 -1z
m-144 -6 c0 -7 -4 -19 -9 -26 -6 -10 -10 -7 -13 12 -4 18 -1 26 8 26 8 0 14
-6 14 -12z m48 -16 c3 -16 -2 -22 -16 -22 -14 0 -19 6 -17 23 3 29 3 29 18 25
6 -3 13 -14 15 -26z m41 1 c-1 -17 -3 -21 -6 -10 -2 9 -9 17 -14 17 -6 0 -7 5
-4 10 12 19 25 10 24 -17z"/>
<path d="M353 709 c-18 -12 -33 -25 -33 -29 0 -15 20 -22 21 -8 0 7 5 3 11 -9
12 -25 45 -36 67 -23 13 8 13 9 -5 10 -11 0 -31 11 -44 25 -13 14 -18 25 -11
25 7 0 19 7 27 15 22 21 5 18 -33 -6z"/>
<path d="M399 699 c-12 -8 -12 -10 1 -19 20 -13 27 -12 33 4 7 18 -15 27 -34
15z"/>
<path d="M605 638 c-16 -6 -39 -17 -50 -24 -11 -8 -36 -14 -57 -14 -44 0 -108
-28 -108 -48 0 -10 9 -8 36 8 19 13 54 24 77 25 23 1 59 10 79 19 21 9 42 16
48 16 5 0 10 7 10 15 0 8 -1 15 -2 14 -2 0 -16 -5 -33 -11z"/>
<path d="M340 620 c0 -5 5 -10 10 -10 6 0 10 5 10 10 0 6 -4 10 -10 10 -5 0
-10 -4 -10 -10z"/>
<path d="M356 566 c3 -9 11 -16 16 -16 13 0 5 23 -10 28 -7 2 -10 -2 -6 -12z"/>
<path d="M226 662 c-3 -6 -1 -14 5 -17 15 -10 25 3 12 16 -7 7 -13 7 -17 1z"/>
<path d="M551 364 c0 -11 3 -14 6 -6 3 7 2 16 -1 19 -3 4 -6 -2 -5 -13z"/>
<path d="M157 609 c7 -7 15 -10 18 -7 3 3 -2 9 -12 12 -14 6 -15 5 -6 -5z"/>
</g>
</svg>
