<?xml version="1.0" standalone="no"?>
<!DOCTYPE svg PUBLIC "-//W3C//DTD SVG 20010904//EN"
 "http://www.w3.org/TR/2001/REC-SVG-20010904/DTD/svg10.dtd">
<svg version="1.0" xmlns="http://www.w3.org/2000/svg"
 width="225.000000pt" height="225.000000pt" viewBox="0 0 225.000000 225.000000"
 preserveAspectRatio="xMidYMid meet">

<g transform="translate(0.000000,225.000000) scale(0.100000,-0.100000)"
fill="#000000" stroke="none">
<path d="M1040 2244 c-480 -45 -868 -366 -996 -825 -37 -135 -45 -372 -16
-509 68 -324 250 -580 531 -750 320 -192 766 -202 1090 -24 277 152 478 405
557 699 121 456 -52 933 -438 1208 -200 143 -489 223 -728 201z m354 -108
c356 -93 629 -362 743 -732 25 -84 27 -100 27 -279 0 -179 -2 -195 -27 -279
-163 -529 -657 -841 -1188 -750 -542 93 -926 607 -860 1150 14 115 66 280 117
374 151 275 427 477 732 535 120 23 332 14 456 -19z"/>
<path d="M955 2085 c-202 -37 -389 -138 -531 -287 -318 -333 -360 -833 -103
-1218 60 -89 170 -202 253 -259 74 -51 223 -117 316 -141 48 -12 133 -24 195
-27 447 -21 846 264 982 703 25 83 27 100 27 269 0 167 -2 187 -27 268 -96
313 -324 553 -624 656 -143 48 -341 63 -488 36z m205 -110 l0 -85 50 0 c43 0
50 -3 50 -20 0 -18 -7 -20 -59 -20 -86 0 -91 3 -91 65 0 96 11 145 31 145 17
0 19 -9 19 -85z m-125 55 c14 -16 16 -23 7 -32 -10 -10 -17 -10 -32 0 -27 16
-55 15 -70 -3 -15 -19 -7 -82 14 -103 21 -21 66 -8 66 19 0 15 5 20 22 17 33
-5 33 -25 0 -58 -37 -37 -80 -39 -117 -7 -50 43 -49 146 2 176 31 18 88 13
108 -9z m333 1 c12 -7 10 -21 -9 -79 -19 -60 -20 -73 -9 -87 27 -32 51 -14 78
60 30 84 26 78 51 70 19 -6 19 -7 -5 -77 -13 -39 -31 -80 -41 -90 -20 -22 -71
-24 -101 -2 -42 29 -44 47 -17 133 26 83 30 87 53 72z m-648 -101 c0 -3 -20
-16 -44 -30 -38 -20 -43 -27 -35 -42 10 -18 12 -18 53 6 24 14 46 22 50 19 15
-15 3 -33 -34 -54 -33 -19 -37 -25 -29 -41 13 -24 22 -23 71 8 32 21 42 23 49
12 5 -7 9 -15 9 -18 0 -7 -131 -83 -134 -78 -14 15 -96 159 -96 166 0 6 28 26
62 45 58 32 77 34 78 7z m915 -15 c42 -26 55 -41 55 -59 0 -24 -23 -56 -39
-56 -5 0 -6 -11 -3 -25 5 -30 -21 -65 -49 -65 -14 0 -95 42 -128 66 -4 3 99
174 105 174 3 0 29 -16 59 -35z m-1117 -97 c9 -9 7 -17 -9 -34 l-20 -21 60
-49 c62 -51 69 -62 49 -82 -8 -8 -26 3 -74 44 l-63 55 -17 -26 c-15 -23 -19
-24 -32 -12 -12 13 -8 23 34 76 27 33 51 61 55 61 3 0 10 -5 17 -12z m800 -29
c207 -64 375 -219 455 -420 73 -182 55 -417 -45 -589 l-32 -55 -9 35 c-11 42
-7 64 28 159 64 177 33 410 -76 563 -17 23 -20 38 -15 69 l6 40 -34 -6 c-30
-6 -43 -1 -99 39 -159 113 -339 149 -526 105 -66 -16 -180 -72 -225 -111 l-38
-33 30 -110 c43 -154 60 -256 73 -419 10 -134 1 -353 -13 -316 -5 14 -98 818
-98 848 0 7 -15 12 -41 12 l-40 0 6 -42 c3 -24 34 -292 69 -596 35 -304 66
-556 69 -558 3 -3 19 -3 36 1 36 8 36 9 17 163 -9 74 -10 105 -2 111 6 5 47
22 91 37 121 42 252 40 443 -5 78 -19 142 -38 142 -42 0 -14 -114 -79 -179
-101 -54 -19 -87 -23 -181 -23 -118 0 -175 12 -262 57 l-38 18 0 -25 c0 -30
28 -46 131 -75 181 -50 388 -11 536 101 46 35 58 39 88 33 19 -3 35 -10 35
-15 0 -17 -119 -104 -194 -140 -111 -54 -204 -73 -335 -67 -79 4 -124 11 -179
31 l-72 25 6 -49 c6 -47 6 -49 -18 -49 -14 0 -39 -3 -56 -6 l-30 -6 -7 82 -7
82 -77 76 c-181 181 -253 405 -205 640 17 89 68 202 122 276 20 28 36 56 34
63 -2 7 4 13 13 13 9 0 40 20 68 45 85 74 222 137 341 156 76 12 217 1 294
-22z m517 -45 c36 -41 45 -58 36 -67 -8 -8 -21 -2 -49 26 -33 32 -41 36 -51
23 -10 -11 -6 -21 20 -51 26 -30 30 -38 18 -45 -10 -7 -24 1 -50 26 -34 33
-36 34 -52 16 -16 -17 -15 -20 18 -52 38 -36 43 -55 21 -63 -15 -6 -110 96
-104 112 2 7 139 131 144 131 1 0 23 -25 49 -56z m-559 -58 c27 -7 66 -20 86
-29 44 -18 138 -79 138 -88 0 -10 -118 -29 -176 -29 -28 0 -121 18 -208 40
-97 25 -181 40 -219 40 -57 1 -60 2 -43 15 30 23 123 55 186 65 66 10 167 4
236 -14z m-854 -63 c10 -9 18 -25 18 -35 0 -17 5 -18 50 -12 53 7 56 4 40 -27
-8 -14 -21 -19 -48 -19 -35 0 -83 -22 -72 -33 3 -3 20 -13 37 -24 29 -17 31
-22 19 -38 -12 -17 -18 -15 -99 29 -48 26 -87 49 -87 51 0 10 64 111 74 117
19 13 48 9 68 -9z m1187 -93 c-5 -22 -12 -70 -17 -107 l-7 -68 -200 0 -200 0
-3 99 -3 99 23 -8 c56 -17 194 -16 278 4 47 10 97 19 111 20 26 1 27 0 18 -39z
m-573 11 c65 -40 100 -147 74 -225 -52 -158 -238 -158 -290 0 -15 46 -7 125
18 167 41 72 132 98 198 58z m965 -71 c32 -81 18 -128 -35 -118 -18 4 -27 -1
-35 -19 -8 -17 -19 -23 -45 -23 -18 0 -38 6 -44 13 -15 18 -52 120 -46 126 9
9 168 69 178 67 5 -1 17 -22 27 -46z m-351 -89 c47 -95 63 -172 57 -286 -3
-63 -12 -120 -25 -155 l-19 -55 -11 40 c-46 166 -66 324 -56 442 4 45 11 80
16 77 4 -3 22 -31 38 -63z m-1284 24 c64 -26 78 -109 27 -160 -20 -19 -36 -25
-70 -25 -38 0 -50 5 -80 35 -32 32 -35 40 -30 73 7 44 55 92 92 92 14 0 41 -7
61 -15z m1564 -145 c30 -11 74 -28 98 -36 34 -13 42 -20 40 -37 -4 -27 -188
-113 -200 -94 -13 20 -9 27 17 39 20 9 25 18 25 49 0 33 -4 40 -25 45 -18 4
-25 13 -25 30 0 29 1 29 70 4z m-692 -105 c67 -8 175 -17 240 -21 l118 -7 20
-98 20 -99 -76 0 c-41 0 -151 9 -245 20 -190 22 -318 25 -414 10 -35 -6 -65
-9 -67 -7 -2 1 -6 40 -10 85 l-7 81 29 12 c102 39 208 46 392 24z m-936 -12
c11 -10 18 -30 18 -55 l0 -38 40 6 c38 6 40 5 40 -19 0 -24 -1 -25 -97 -29
-54 -3 -99 -4 -101 -3 -1 1 -5 25 -9 53 -8 67 13 102 59 102 17 0 40 -7 50
-17z m1688 -96 c64 -10 75 -15 75 -32 0 -17 -6 -20 -41 -17 -41 2 -42 1 -46
-33 -4 -37 4 -45 48 -45 19 0 24 -5 24 -25 0 -14 -4 -25 -8 -25 -15 0 -197 32
-200 35 -2 2 -1 13 3 25 4 13 13 19 23 16 70 -18 70 -19 74 24 3 35 1 40 -17
40 -40 0 -65 12 -65 31 0 23 19 23 130 6z m-1577 -94 c35 -40 34 -113 -3 -133
-27 -14 -38 12 -19 46 9 19 10 30 2 42 -20 33 -38 19 -41 -33 -5 -82 -49 -109
-97 -60 -17 16 -25 35 -25 59 0 32 20 66 40 66 13 0 19 -37 8 -48 -14 -14 -1
-65 15 -59 7 2 13 25 13 55 1 29 7 59 14 67 17 21 73 19 93 -2z m1515 -117
c65 -22 82 -32 82 -47 0 -10 -6 -19 -12 -19 -17 0 -171 51 -181 60 -11 10 3
42 17 37 6 -2 48 -16 94 -31z m-1423 -94 c20 -35 34 -66 31 -69 -15 -16 -161
-101 -167 -97 -3 2 -23 31 -42 64 -33 55 -35 61 -18 69 15 8 22 3 40 -29 26
-46 32 -52 51 -40 11 7 9 15 -9 45 -21 37 -22 65 -2 65 5 0 20 -18 32 -40 25
-44 27 -45 51 -27 15 12 14 17 -13 60 -26 42 -27 47 -11 56 9 5 18 9 18 8 1
-1 19 -30 39 -65z m1368 -8 c69 -89 71 -95 55 -116 -12 -15 -20 -15 -110 0
-53 10 -100 20 -104 24 -13 14 19 40 41 34 30 -8 66 54 46 78 -12 15 -7 57 7
55 4 0 33 -34 65 -75z m-245 -230 c40 -28 18 -104 -30 -104 -24 0 -58 35 -58
60 0 22 33 60 53 60 7 0 23 -7 35 -16z m-950 -20 c40 -28 18 -104 -30 -104
-24 0 -58 35 -58 60 0 22 33 60 53 60 7 0 23 -7 35 -16z m690 -151 c27 -107
27 -113 3 -113 -12 0 -21 10 -25 28 -25 101 -26 103 -42 87 -35 -34 -46 -8
-14 32 11 14 20 32 20 39 0 8 8 14 18 14 13 0 22 -19 40 -87z m-388 52 c0 -6
-4 -25 -9 -41 -5 -16 -17 -54 -25 -86 -14 -48 -19 -55 -36 -51 -24 6 -24 4 -1
79 l18 60 -30 -4 c-25 -4 -28 -2 -20 12 11 21 74 53 91 48 6 -2 12 -10 12 -17z
m130 -15 c23 -23 28 -102 9 -144 -24 -52 -93 -55 -119 -6 -9 17 -8 20 14 20
13 0 26 -5 28 -12 6 -16 38 -2 38 15 0 9 -10 15 -26 15 -53 0 -78 61 -44 105
26 33 71 36 100 7z m140 5 c8 -9 10 -29 7 -50 -3 -19 -2 -35 3 -35 19 0 22
-50 6 -76 -15 -21 -24 -25 -58 -22 -29 2 -45 9 -55 25 -14 20 -14 23 1 29 10
4 25 -1 36 -11 22 -20 40 -12 40 17 0 11 -8 22 -20 25 -23 6 -27 28 -5 37 8 3
15 12 15 20 0 23 -22 31 -35 13 -14 -19 -45 -23 -45 -5 0 40 83 65 110 33z"/>
<path d="M1582 1880 c-10 -17 -8 -21 16 -33 51 -27 74 6 24 35 -26 16 -29 16
-40 -2z"/>
<path d="M1540 1809 c-10 -17 -8 -23 7 -35 10 -7 28 -14 41 -14 32 0 28 32 -8
53 -28 17 -29 17 -40 -4z"/>
<path d="M582 1430 c-56 -96 -77 -179 -76 -310 0 -98 4 -126 27 -194 30 -85
95 -193 146 -240 l31 -30 0 27 c0 16 -18 52 -46 89 -84 113 -118 217 -117 358
0 88 19 174 54 243 12 23 19 53 17 75 l-3 37 -33 -55z"/>
<path d="M345 1561 c-14 -28 -14 -30 7 -37 24 -7 48 17 48 48 0 30 -38 22 -55
-11z"/>
<path d="M893 1483 c-27 -5 -27 -13 -9 -153 8 -52 14 -80 15 -62 2 46 33 57
114 38 34 -8 63 -14 64 -13 0 1 -1 14 -4 30 -5 27 -6 27 -88 27 -71 0 -84 -3
-88 -17 -3 -10 -5 -4 -6 13 0 17 -3 53 -6 80 -3 36 -2 42 4 24 5 -14 9 -19 10
-11 1 8 8 23 18 33 9 10 12 17 7 17 -5 -1 -19 -4 -31 -6z"/>
<path d="M946 1473 c5 -5 12 -12 16 -18 4 -6 8 -2 8 8 0 9 -7 17 -17 17 -9 0
-12 -3 -7 -7z"/>
<path d="M959 1419 c-7 -14 -2 -18 29 -23 60 -10 72 -8 72 13 0 26 -87 35
-101 10z"/>
<path d="M900 1406 c0 -9 5 -16 10 -16 6 0 10 4 10 9 0 6 -4 13 -10 16 -5 3
-10 -1 -10 -9z"/>
<path d="M1940 1460 c-11 -7 -12 -15 -4 -37 13 -38 40 -37 37 1 -3 36 -14 48
-33 36z"/>
<path d="M1857 1428 c-14 -12 -14 -17 -2 -45 15 -36 26 -41 44 -19 8 9 8 21 0
45 -12 34 -18 37 -42 19z"/>
<path d="M260 1351 c-20 -39 -3 -70 49 -86 59 -18 98 55 49 89 -32 23 -85 21
-98 -3z"/>
<path d="M1950 1181 c0 -17 3 -18 30 -8 20 7 25 14 17 19 -23 14 -47 9 -47
-11z"/>
<path d="M230 1080 c0 -25 4 -30 25 -30 21 0 25 5 25 30 0 25 -4 30 -25 30
-21 0 -25 -5 -25 -30z"/>
<path d="M1826 684 c-8 -22 -9 -21 23 -26 28 -4 29 -4 14 19 -18 27 -29 29
-37 7z"/>
<path d="M1047 353 c-4 -3 -7 -19 -7 -35 0 -21 5 -28 19 -28 24 0 34 25 21 51
-11 20 -22 24 -33 12z"/>
</g>
</svg>
