<?xml version="1.0" standalone="no"?>
<!DOCTYPE svg PUBLIC "-//W3C//DTD SVG 20010904//EN"
 "http://www.w3.org/TR/2001/REC-SVG-20010904/DTD/svg10.dtd">
<svg version="1.0" xmlns="http://www.w3.org/2000/svg"
 width="130.000000pt" height="130.000000pt" viewBox="0 0 130.000000 130.000000"
 preserveAspectRatio="xMidYMid meet">

<g transform="translate(0.000000,130.000000) scale(0.100000,-0.100000)"
fill="#000000" stroke="none">
<path d="M512 1186 c-137 -34 -283 -148 -349 -272 -146 -276 -37 -623 237
-756 220 -107 472 -67 640 102 219 219 219 561 0 780 -72 72 -176 130 -268
149 -69 14 -193 13 -260 -3z m272 -12 c184 -47 334 -195 390 -383 21 -71 21
-211 0 -282 -56 -188 -206 -336 -390 -383 -282 -73 -573 97 -658 383 -9 32
-16 91 -16 141 0 150 52 274 159 380 108 107 228 158 375 159 43 1 106 -6 140
-15z"/>
<path d="M603 1163 c-39 -5 -44 -23 -7 -23 l26 0 -26 -31 c-14 -17 -26 -35
-26 -40 0 -6 21 -9 48 -7 27 2 45 7 42 13 -3 6 -13 10 -22 9 -23 -1 -23 7 2
39 23 29 26 48 8 45 -7 0 -28 -3 -45 -5z"/>
<path d="M717 1153 c-2 -4 -8 -27 -11 -49 l-7 -41 40 -11 c49 -12 59 7 14 25
l-28 11 27 1 c35 1 48 21 14 21 -14 0 -26 5 -26 11 0 7 11 9 30 6 22 -5 30 -3
30 8 0 8 -8 15 -17 15 -10 0 -28 3 -39 6 -12 3 -24 2 -27 -3z"/>
<path d="M493 1143 c-10 -4 -9 -13 2 -40 25 -59 -4 -76 -32 -18 -9 19 -23 35
-30 35 -17 0 -16 -7 5 -50 26 -54 93 -51 92 4 -1 32 -23 74 -37 69z"/>
<path d="M832 1075 c-14 -28 -18 -47 -11 -51 13 -7 12 -8 37 42 19 38 20 54 2
54 -3 0 -16 -20 -28 -45z"/>
<path d="M897 1043 c-20 -27 -24 -39 -16 -47 8 -8 13 -7 16 2 3 6 11 12 20 12
10 0 13 -8 11 -27 -4 -35 19 -42 32 -9 5 14 14 26 20 26 20 0 9 39 -16 59 -15
12 -29 21 -33 21 -3 -1 -18 -17 -34 -37z m63 -19 c0 -16 -16 -19 -25 -4 -8 13
4 32 16 25 5 -4 9 -13 9 -21z"/>
<path d="M321 1046 l-23 -25 27 -35 c15 -20 31 -36 35 -36 15 0 19 14 8 27
-17 21 6 41 27 23 11 -9 19 -10 26 -3 7 7 5 15 -8 24 -11 8 -22 22 -26 32 -9
24 -40 21 -66 -7z m49 -15 c0 -14 -18 -23 -30 -16 -6 4 -8 11 -5 16 8 12 35
12 35 0z"/>
<path d="M560 1026 c-152 -42 -262 -160 -290 -313 -45 -251 191 -492 438 -446
167 31 292 156 322 320 47 266 -214 510 -470 439z m100 -82 c0 -9 10 -14 27
-14 25 0 26 -1 8 -20 -10 -11 -15 -28 -12 -40 6 -23 -3 -26 -21 -8 -10 10 -17
10 -34 -1 -19 -12 -20 -11 -14 12 4 17 1 27 -9 31 -22 8 -18 26 6 26 12 0 23
8 26 20 6 22 23 18 23 -6z m-190 -204 c23 0 27 -18 5 -26 -10 -4 -13 -14 -9
-31 6 -23 5 -24 -14 -12 -17 11 -24 11 -34 1 -19 -19 -28 -14 -19 10 6 17 3
26 -13 40 l-21 17 27 1 c19 0 29 7 34 22 l7 23 8 -23 c5 -13 17 -22 29 -22z
m410 4 c0 -9 10 -14 27 -14 25 0 26 -1 8 -14 -12 -8 -16 -20 -12 -35 6 -23 0
-26 -22 -12 -9 6 -22 6 -34 0 -15 -9 -18 -7 -15 9 2 10 -3 26 -11 35 -12 15
-11 17 7 17 12 0 23 9 27 20 7 22 25 18 25 -6z m-160 -79 c0 -9 9 -15 23 -15
19 -1 20 -2 5 -10 -11 -7 -14 -17 -10 -32 5 -21 4 -22 -11 -9 -14 11 -20 11
-34 0 -15 -12 -16 -12 -10 5 4 10 2 25 -4 32 -9 11 -8 14 5 14 9 0 16 7 16 15
0 8 5 15 10 15 6 0 10 -7 10 -15z m-50 -241 c0 -9 10 -14 28 -14 l27 -1 -21
-17 c-16 -14 -19 -23 -13 -40 9 -24 0 -29 -19 -10 -10 10 -17 10 -34 -1 -19
-12 -20 -11 -15 11 5 17 1 28 -16 40 l-22 18 28 0 c20 0 30 6 34 20 6 22 23
18 23 -6z"/>
<path d="M221 934 c-10 -22 -9 -31 4 -50 22 -33 71 -33 87 0 12 28 4 61 -13
51 -6 -4 -8 -14 -4 -23 8 -20 -14 -33 -37 -21 -24 13 -23 33 5 52 l22 16 -26
0 c-18 1 -29 -6 -38 -25z"/>
<path d="M992 948 c-15 -15 -15 -43 -2 -69 16 -29 65 -25 86 6 15 23 15 27 0
50 -18 27 -63 34 -84 13z m65 -24 c7 -20 -22 -45 -43 -37 -19 7 -18 30 4 42
24 15 32 13 39 -5z"/>
<path d="M140 706 c0 -13 -3 -31 -6 -40 -4 -11 -1 -16 10 -16 10 0 16 9 16 25
0 34 20 32 21 -2 l1 -28 11 28 c15 37 30 34 22 -4 -6 -24 -4 -30 6 -27 8 3 15
22 17 46 l3 42 -50 0 c-47 0 -51 -2 -51 -24z"/>
<path d="M1068 724 c-5 -4 -8 -25 -8 -47 l0 -40 50 5 c28 3 52 7 54 9 2 2 1
21 -2 42 -5 44 -22 50 -22 6 0 -17 -4 -28 -10 -24 -5 3 -10 15 -10 26 0 10 -4
19 -10 19 -5 0 -10 -11 -10 -25 0 -36 -18 -31 -22 6 -2 17 -6 27 -10 23z"/>
<path d="M203 602 c-5 -4 -13 -19 -17 -34 -9 -40 -29 -36 -21 3 5 24 4 30 -6
27 -20 -6 -22 -49 -5 -73 19 -26 50 -10 54 29 2 14 8 26 14 26 6 0 8 -10 4
-25 -6 -25 7 -35 19 -14 17 27 -17 77 -42 61z"/>
<path d="M1060 581 c-20 -39 -12 -59 28 -70 55 -16 59 -14 65 26 8 45 1 53
-46 59 -28 3 -38 0 -47 -15z m34 -26 c-6 -16 -24 -21 -24 -7 0 11 11 22 21 22
5 0 6 -7 3 -15z m39 9 c8 -8 -3 -34 -14 -34 -5 0 -9 9 -9 20 0 19 11 26 23 14z"/>
<path d="M213 477 c-31 -16 -40 -26 -34 -36 5 -7 14 -10 20 -7 6 4 20 -2 29
-15 22 -26 62 -19 62 11 0 22 -20 70 -29 70 -3 -1 -25 -11 -48 -23z m51 -32
c3 -9 0 -15 -9 -15 -16 0 -27 14 -18 24 10 10 21 7 27 -9z"/>
<path d="M1027 476 c-4 -10 7 -22 30 -36 27 -16 33 -24 25 -32 -9 -9 -20 -8
-46 4 -31 15 -46 15 -46 -1 0 -4 16 -15 36 -26 38 -20 57 -16 78 18 14 21 2
41 -40 68 -27 16 -33 17 -37 5z"/>
<path d="M274 355 c-19 -29 -11 -60 18 -76 49 -26 100 40 63 81 -25 27 -61 25
-81 -5z m64 -31 c-5 -27 -48 -32 -48 -5 0 22 30 44 43 31 5 -4 7 -16 5 -26z"/>
<path d="M925 340 c-5 -7 7 -26 27 -47 l35 -35 27 26 c15 14 25 30 21 36 -5 8
-13 6 -26 -6 -19 -17 -21 -16 -48 10 -20 19 -31 24 -36 16z"/>
<path d="M392 270 c-26 -46 -28 -60 -7 -60 8 0 15 5 15 10 0 6 7 10 16 10 12
0 15 -7 12 -24 -8 -42 17 -36 39 9 20 40 20 45 5 58 -44 38 -56 38 -80 -3z
m59 -15 c-1 -15 -24 -12 -29 3 -3 9 2 13 12 10 10 -1 17 -7 17 -13z"/>
<path d="M841 281 c-12 -12 -21 -27 -21 -34 0 -24 31 -57 54 -57 24 0 56 28
56 48 0 19 -16 14 -32 -10 -13 -20 -17 -21 -32 -9 -26 22 -20 51 10 51 16 0
24 5 22 13 -7 20 -36 19 -57 -2z"/>
<path d="M520 240 c0 -5 5 -10 11 -10 7 0 8 -14 4 -39 -4 -24 -2 -41 4 -46 11
-6 15 0 26 48 4 20 10 27 20 23 9 -3 15 0 15 8 0 7 -14 16 -31 20 -42 8 -49 8
-49 -4z"/>
<path d="M652 233 c-16 -3 -22 -9 -18 -20 3 -8 6 -30 6 -49 0 -36 14 -42 68
-28 33 9 27 27 -8 22 -20 -3 -30 0 -30 9 0 7 11 13 26 13 15 0 23 4 19 10 -4
6 -15 8 -25 5 -10 -3 -21 -1 -24 4 -4 5 7 12 24 16 16 4 30 11 30 16 0 9 -26
10 -68 2z"/>
</g>
</svg>
